<svg xmlns="http://www.w3.org/2000/svg" viewBox="0 0 512 512">
  <defs>
    <linearGradient id="bg" x1="0" y1="0" x2="1" y2="1">
      <stop offset="0%" stop-color="#3b82f6"/>
      <stop offset="100%" stop-color="#1d4ed8"/>
    </linearGradient>
  </defs>
  <!-- Background circle -->
  <circle cx="256" cy="256" r="248" fill="url(#bg)"/>
  <circle cx="256" cy="256" r="230" fill="none" stroke="white" stroke-width="3" opacity="0.3"/>
  <!-- Compass rose -->
  <g transform="translate(256,256)">
    <!-- N arrow (bright) -->
    <polygon points="0,-190 -24,-55 0,-75 24,-55" fill="white" opacity="0.95"/>
    <!-- S arrow -->
    <polygon points="0,190 -24,55 0,75 24,55" fill="white" opacity="0.5"/>
    <!-- E arrow -->
    <polygon points="190,0 55,-24 75,0 55,24" fill="white" opacity="0.5"/>
    <!-- W arrow -->
    <polygon points="-190,0 -55,-24 -75,0 -55,24" fill="white" opacity="0.5"/>
    <!-- Diagonal ticks -->
    <line x1="120" y1="-120" x2="140" y2="-140" stroke="white" stroke-width="3" opacity="0.3"/>
    <line x1="120" y1="120" x2="140" y2="140" stroke="white" stroke-width="3" opacity="0.3"/>
    <line x1="-120" y1="-120" x2="-140" y2="-140" stroke="white" stroke-width="3" opacity="0.3"/>
    <line x1="-120" y1="120" x2="-140" y2="140" stroke="white" stroke-width="3" opacity="0.3"/>
    <!-- Center disc -->
    <circle cx="0" cy="0" r="32" fill="white" opacity="0.9"/>
    <!-- Image icon in center -->
    <rect x="-16" y="-13" width="32" height="26" rx="3" fill="#1d4ed8" opacity="0.85"/>
    <circle cx="-6" cy="-4" r="4" fill="white" opacity="0.8"/>
    <polygon points="-12,8 -2,-4 4,5 9,-2 16,8" fill="white" opacity="0.8"/>
  </g>
</svg>